<?xml version="1.0" encoding="utf-8"?>
<!-- Generator: Adobe Illustrator 27.8.1, SVG Export Plug-In . SVG Version: 6.00 Build 0)  -->
<svg version="1.1" id="Layer_1" xmlns="http://www.w3.org/2000/svg" xmlns:xlink="http://www.w3.org/1999/xlink" x="0px" y="0px"
	 viewBox="0 0 470.5 430" style="enable-background:new 0 0 470.5 430;" xml:space="preserve">
<style type="text/css">
	.st0{fill:#FDF6EC;}
	.st1{fill:#FFFFFF;}
	.st2{fill:#0000FF;}
	.st3{fill:#FF0000;}
	.st4{fill:#FFFF00;}
	.st5{fill:none;stroke:#000000;stroke-miterlimit:10;}
	.st6{fill:#FFFFFF;stroke:#000000;stroke-width:6;stroke-miterlimit:10;}
	.st7{fill:#FFFFFF;stroke:#FFFFFF;stroke-width:4;stroke-miterlimit:10;}
</style>
<path d="M465.13,52.17c-0.09-0.11-0.19-0.22-0.29-0.33c-0.11-0.12-0.23-0.22-0.34-0.33c-0.11-0.1-0.22-0.2-0.33-0.29
	c-0.12-0.1-0.25-0.19-0.38-0.27c-0.13-0.09-0.25-0.17-0.39-0.25c-0.04-0.02-0.08-0.06-0.12-0.08c-0.1-0.05-0.2-0.09-0.3-0.14
	c-0.14-0.07-0.27-0.13-0.41-0.19c-0.16-0.07-0.32-0.12-0.48-0.17c-0.1-0.03-0.19-0.07-0.29-0.1L290.96,3.34
	c-1.8-0.49-3.72-0.2-5.28,0.8l-124.03,79.3c-0.04,0.03-0.08,0.06-0.12,0.09c-0.07,0.04-0.14,0.08-0.2,0.13
	c-0.01,0.01-0.03,0.02-0.04,0.03c-0.1,0.07-0.18,0.15-0.27,0.23c-0.07,0.05-0.13,0.11-0.2,0.16c-0.44,0.39-0.82,0.83-1.13,1.31
	c-0.03,0.05-0.06,0.1-0.09,0.15c-0.12,0.2-0.23,0.4-0.33,0.61c-0.03,0.07-0.06,0.14-0.09,0.2c-0.09,0.21-0.17,0.42-0.24,0.64
	c-0.02,0.06-0.04,0.12-0.06,0.18c-0.15,0.51-0.24,1.05-0.26,1.59l-6.06,179.84c-0.1,3.01,1.86,5.71,4.75,6.55l173.5,50.28
	c0.1,0.03,0.2,0.05,0.3,0.07c0.1,0.02,0.19,0.05,0.29,0.07c0.21,0.04,0.41,0.07,0.62,0.09c0.07,0.01,0.14,0.02,0.22,0.02
	c0.28,0.02,0.56,0.02,0.83,0c0.06,0,0.12-0.02,0.18-0.02c0.22-0.02,0.43-0.05,0.65-0.09c0.1-0.02,0.19-0.04,0.28-0.07
	c0.18-0.04,0.36-0.09,0.53-0.15c0.1-0.03,0.19-0.07,0.29-0.1c0.18-0.07,0.36-0.15,0.53-0.23c0.08-0.04,0.16-0.08,0.24-0.12
	c0.25-0.14,0.49-0.28,0.72-0.45c0,0,0,0,0,0l118.84-86.35c0.01-0.01,0.02-0.02,0.04-0.03c1.59-1.17,2.57-3,2.67-4.98l8.59-176.4
	c0-0.08-0.01-0.16-0.01-0.24c0-0.16,0-0.31-0.01-0.47c-0.01-0.16-0.02-0.31-0.04-0.46c-0.01-0.08-0.01-0.16-0.02-0.24
	c-0.01-0.07-0.04-0.13-0.05-0.2c-0.03-0.16-0.07-0.32-0.12-0.48c-0.04-0.14-0.08-0.28-0.13-0.42c-0.05-0.15-0.11-0.3-0.18-0.45
	c-0.06-0.14-0.12-0.27-0.19-0.4c-0.07-0.14-0.15-0.27-0.24-0.41c-0.08-0.13-0.15-0.25-0.24-0.37
	C465.33,52.41,465.23,52.29,465.13,52.17z"/>
<path class="st1" d="M468.71,49.75c-0.09-0.11-0.19-0.23-0.29-0.34c-0.11-0.12-0.23-0.23-0.35-0.33c-0.11-0.1-0.22-0.2-0.34-0.3
	c-0.12-0.1-0.25-0.19-0.39-0.28c-0.13-0.09-0.26-0.18-0.39-0.26c-0.04-0.03-0.08-0.06-0.12-0.08c-0.1-0.06-0.2-0.09-0.3-0.14
	c-0.14-0.07-0.27-0.14-0.42-0.2c-0.16-0.07-0.33-0.12-0.49-0.17c-0.1-0.03-0.19-0.08-0.29-0.1L292.1,0.24
	c-1.82-0.5-3.77-0.2-5.36,0.82L160.98,81.46c-0.04,0.03-0.08,0.06-0.12,0.09c-0.07,0.05-0.14,0.08-0.2,0.13
	c-0.01,0.01-0.03,0.02-0.04,0.03c-0.1,0.07-0.18,0.15-0.28,0.23c-0.07,0.06-0.14,0.11-0.2,0.17c-0.44,0.4-0.83,0.84-1.15,1.33
	c-0.03,0.05-0.06,0.1-0.09,0.15c-0.12,0.2-0.24,0.41-0.34,0.62c-0.03,0.07-0.06,0.14-0.09,0.21c-0.09,0.21-0.17,0.43-0.24,0.65
	c-0.02,0.06-0.04,0.12-0.06,0.18c-0.15,0.52-0.24,1.06-0.26,1.61l-6.14,182.35c-0.1,3.05,1.88,5.79,4.82,6.64l175.93,50.98
	c0.1,0.03,0.21,0.05,0.31,0.07c0.1,0.02,0.2,0.05,0.3,0.07c0.21,0.04,0.42,0.07,0.63,0.09c0.07,0.01,0.15,0.02,0.22,0.02
	c0.28,0.02,0.57,0.02,0.85,0c0.06,0,0.12-0.02,0.18-0.02c0.22-0.02,0.44-0.05,0.66-0.09c0.1-0.02,0.19-0.04,0.29-0.07
	c0.18-0.04,0.36-0.09,0.54-0.15c0.1-0.03,0.2-0.07,0.29-0.1c0.18-0.07,0.36-0.15,0.54-0.24c0.08-0.04,0.17-0.08,0.25-0.12
	c0.25-0.14,0.5-0.29,0.73-0.46c0,0,0,0,0,0l120.5-87.56c0.01-0.01,0.02-0.02,0.04-0.03c1.62-1.19,2.61-3.05,2.71-5.05l8.71-178.87
	c0-0.08-0.01-0.16-0.01-0.24c0-0.16,0-0.32-0.01-0.48c-0.01-0.16-0.02-0.31-0.05-0.47c-0.01-0.08-0.01-0.16-0.02-0.24
	c-0.01-0.07-0.04-0.13-0.05-0.2c-0.03-0.17-0.07-0.33-0.12-0.49c-0.04-0.14-0.08-0.28-0.13-0.42c-0.05-0.15-0.12-0.3-0.18-0.45
	c-0.06-0.14-0.12-0.27-0.19-0.41c-0.07-0.14-0.16-0.28-0.24-0.41c-0.08-0.13-0.16-0.25-0.24-0.37
	C468.91,50,468.81,49.87,468.71,49.75z M170.96,95.89l162.69,47.14l-5.69,168.76l-162.62-47.54L170.96,95.89z M447.87,56.63
	l-108.53,74.14l-158.74-46L291.44,13.9L447.87,56.63z M448.34,229.34L341.5,306.98l5.57-165.3l49.33-33.7l59.85-40.88L448.34,229.34
	z"/>
<path d="M320.05,155.11c-0.09-0.11-0.18-0.22-0.29-0.33c-0.11-0.12-0.23-0.22-0.34-0.33c-0.11-0.1-0.22-0.2-0.33-0.29
	c-0.12-0.1-0.25-0.18-0.38-0.27c-0.13-0.09-0.25-0.17-0.39-0.25c-0.04-0.02-0.08-0.06-0.12-0.08c-0.1-0.05-0.2-0.09-0.3-0.14
	c-0.14-0.07-0.27-0.13-0.41-0.19c-0.16-0.07-0.32-0.12-0.48-0.17c-0.1-0.03-0.19-0.07-0.29-0.1L146.1,106.34
	c-1.79-0.49-3.71-0.2-5.28,0.8l-123.88,79.2c-0.04,0.03-0.08,0.06-0.12,0.09c-0.07,0.04-0.14,0.08-0.2,0.13
	c-0.01,0.01-0.03,0.02-0.04,0.03c-0.1,0.07-0.18,0.15-0.27,0.22c-0.07,0.05-0.13,0.11-0.2,0.16c-0.44,0.39-0.82,0.83-1.13,1.31
	c-0.03,0.05-0.06,0.1-0.09,0.15c-0.12,0.2-0.23,0.4-0.33,0.61c-0.03,0.07-0.06,0.14-0.09,0.2c-0.09,0.21-0.17,0.42-0.24,0.64
	c-0.02,0.06-0.04,0.12-0.06,0.18c-0.15,0.51-0.24,1.05-0.26,1.59L7.86,371.29c-0.1,3.01,1.85,5.7,4.74,6.54l173.29,50.22
	c0.1,0.03,0.2,0.05,0.3,0.07c0.1,0.02,0.19,0.05,0.29,0.07c0.21,0.04,0.41,0.07,0.62,0.08c0.07,0.01,0.14,0.02,0.22,0.02
	c0.28,0.02,0.56,0.02,0.83,0c0.06,0,0.12-0.02,0.18-0.02c0.22-0.02,0.43-0.05,0.65-0.09c0.1-0.02,0.19-0.04,0.28-0.07
	c0.18-0.04,0.36-0.09,0.53-0.15c0.1-0.03,0.19-0.07,0.29-0.1c0.18-0.07,0.36-0.15,0.53-0.23c0.08-0.04,0.16-0.08,0.24-0.12
	c0.25-0.14,0.49-0.28,0.72-0.45c0,0,0,0,0,0l118.69-86.24c0.01-0.01,0.02-0.02,0.04-0.03c1.59-1.17,2.57-3,2.67-4.98l8.58-176.19
	c0-0.08-0.01-0.16-0.01-0.24c0-0.16,0-0.31-0.01-0.47c-0.01-0.16-0.02-0.31-0.04-0.46c-0.01-0.08-0.01-0.16-0.02-0.24
	c-0.01-0.07-0.04-0.13-0.05-0.2c-0.03-0.16-0.07-0.32-0.12-0.48c-0.04-0.14-0.08-0.28-0.13-0.42c-0.05-0.15-0.11-0.3-0.18-0.45
	c-0.06-0.14-0.12-0.27-0.19-0.4c-0.07-0.14-0.15-0.27-0.24-0.41c-0.08-0.13-0.15-0.25-0.24-0.37
	C320.26,155.36,320.16,155.23,320.05,155.11z"/>
<path class="st1" d="M321.45,153.01c-0.09-0.11-0.19-0.23-0.29-0.34c-0.11-0.12-0.23-0.23-0.35-0.33c-0.11-0.1-0.22-0.2-0.34-0.3
	c-0.12-0.1-0.25-0.19-0.39-0.28c-0.13-0.09-0.26-0.18-0.39-0.26c-0.04-0.03-0.08-0.06-0.12-0.08c-0.1-0.06-0.2-0.09-0.3-0.14
	c-0.14-0.07-0.27-0.14-0.42-0.2c-0.16-0.07-0.33-0.12-0.49-0.17c-0.1-0.03-0.19-0.07-0.29-0.1L144.85,103.5
	c-1.82-0.5-3.77-0.2-5.36,0.82L13.73,184.72c-0.04,0.03-0.08,0.06-0.12,0.09c-0.07,0.04-0.14,0.08-0.2,0.13
	c-0.01,0.01-0.03,0.02-0.04,0.03c-0.1,0.07-0.18,0.15-0.28,0.23c-0.07,0.06-0.14,0.11-0.2,0.17c-0.44,0.4-0.83,0.84-1.15,1.33
	c-0.03,0.05-0.06,0.1-0.09,0.15c-0.12,0.2-0.24,0.41-0.34,0.62c-0.03,0.07-0.06,0.14-0.09,0.21c-0.09,0.21-0.17,0.43-0.24,0.65
	c-0.02,0.06-0.04,0.12-0.06,0.18c-0.15,0.52-0.24,1.06-0.26,1.61L4.5,372.47c-0.1,3.05,1.88,5.79,4.82,6.64l175.93,50.98
	c0.1,0.03,0.21,0.05,0.31,0.07c0.1,0.02,0.2,0.05,0.3,0.07c0.21,0.04,0.42,0.07,0.63,0.09c0.07,0.01,0.15,0.02,0.22,0.02
	c0.28,0.02,0.57,0.02,0.85,0c0.06,0,0.12-0.02,0.18-0.02c0.22-0.02,0.44-0.05,0.66-0.09c0.1-0.02,0.19-0.04,0.29-0.07
	c0.18-0.04,0.36-0.09,0.54-0.15c0.1-0.03,0.2-0.07,0.29-0.1c0.18-0.07,0.36-0.15,0.54-0.24c0.08-0.04,0.17-0.08,0.25-0.12
	c0.25-0.14,0.5-0.29,0.73-0.46c0,0,0,0,0,0l120.5-87.56c0.01-0.01,0.02-0.02,0.04-0.03c1.62-1.19,2.61-3.05,2.71-5.05l8.71-178.87
	c0-0.08-0.01-0.16-0.01-0.24c0-0.16,0-0.32-0.01-0.48c-0.01-0.16-0.02-0.31-0.05-0.47c-0.01-0.08-0.01-0.16-0.02-0.24
	c-0.01-0.07-0.04-0.13-0.05-0.2c-0.03-0.17-0.07-0.33-0.12-0.49c-0.04-0.14-0.08-0.28-0.13-0.42c-0.05-0.15-0.12-0.3-0.18-0.45
	c-0.06-0.14-0.12-0.27-0.19-0.41c-0.07-0.14-0.16-0.28-0.24-0.41c-0.08-0.13-0.16-0.25-0.24-0.37
	C321.66,153.26,321.56,153.13,321.45,153.01z M23.71,199.15L186.4,246.3l-5.69,168.76L18.09,367.51L23.71,199.15z M300.62,159.89
	l-108.53,74.14l-158.74-46l110.85-70.87L300.62,159.89z M301.09,332.6l-106.85,77.64l5.57-165.3l49.33-33.7l59.85-40.88
	L301.09,332.6z"/>
<g>
	<path class="st1" d="M66.94,336.75l0.35-12.53l45.62-41.36l-41.45-11.97l0.35-12.82l61.12,17.66l-0.27,13l-45.6,40.37l45.61,13.13
		l-0.27,13.35L66.94,336.75z"/>
</g>
<g>
	<path class="st1" d="M377.56,76.2l-14.52-4.06c8.44,5.52,6.54,11.35-0.88,16.36c-10.61,7.16-27.85,9.35-45.91,4.21l-48.93-13.93
		l10.66-6.97l44.29,12.54c13.73,3.89,22.92,3.27,30.26-1.66c10.44-7.01,1.92-12.45-11.28-16.14l-38.69-10.81l10.34-6.76l74.38,20.67
		L377.56,76.2z"/>
</g>
<g>
	<path class="st1" d="M225.61,358.56l4.02-105.95l10.43-7.2l-1.7,43.19c4.01-14.18,10.57-23.53,17.74-28.53
		c12.71-8.87,20.12,1.19,19.04,25.57c-1.15,25.76-10.86,47.08-23.44,56.13c-6.48,4.66-12.72,5.39-15.47-4.11l-0.54,13.67
		L225.61,358.56z M264.7,293.02c0.72-16.74-3.69-23.23-12.49-17.06c-9.57,6.71-14.62,21.6-15.24,37.31
		c-0.71,18.13,5.03,23.1,12.87,17.49C257.87,325.02,263.92,311.07,264.7,293.02z"/>
</g>
<g>
	<path class="st1" d="M384.97,213.14c-0.19,15.01,4.64,20.18,12.78,14.34c5.86-4.19,10.56-11.91,12.22-20.62l10.62-7.57
		c-3.74,17.66-11.37,31.81-23.35,40.43c-15.79,11.36-23.52,2.09-22.56-23.09c0.99-26,10.48-47.13,25.6-57.68
		c15.62-10.9,22.82-0.54,21.55,28.04L384.97,213.14z M411.74,184.47c0.4-13.95-4.73-17.97-11.97-12.89
		c-7.48,5.25-13.13,17.34-14.09,31.32L411.74,184.47z"/>
</g>
<g>
	<g>
		<path class="st1" d="M233.64,176.51l-69.44,1.42l4.63,11.37l32.27,9.16l-10.95,7.39l-98.3-28.05l11.09-7.18l46.77,13.27
			l-15.24-33.67l14.18-9.18l11.72,28.47l86.34-1.81L233.64,176.51z"/>
	</g>
</g>
</svg>
